<svg width="256" height="256" viewBox="0 0 256 256" fill="none" xmlns="http://www.w3.org/2000/svg">
  <defs>
    <linearGradient id="bg" x1="32" y1="24" x2="224" y2="232" gradientUnits="userSpaceOnUse">
      <stop offset="0" stop-color="#06B6D4" />
      <stop offset="1" stop-color="#2563EB" />
    </linearGradient>
    <linearGradient id="arrow" x1="67" y1="121" x2="189" y2="121" gradientUnits="userSpaceOnUse">
      <stop offset="0" stop-color="#22C55E" />
      <stop offset="1" stop-color="#14B8A6" />
    </linearGradient>
  </defs>

  <rect x="20" y="20" width="216" height="216" rx="52" fill="url(#bg)" />

  <g>
    <rect x="48" y="56" width="88" height="66" rx="18" fill="white" fill-opacity="0.95" />
    <path d="M72 124L82 112H94L86 132L72 124Z" fill="white" fill-opacity="0.95" />
    <text x="72" y="98" fill="#0F172A" font-size="34" font-family="Segoe UI, Arial, sans-serif" font-weight="700">A</text>
  </g>

  <g>
    <rect x="120" y="132" width="88" height="66" rx="18" fill="white" fill-opacity="0.95" />
    <path d="M182 130L170 142H156L166 120L182 130Z" fill="white" fill-opacity="0.95" />
    <text x="145" y="175" fill="#0F172A" font-size="34" font-family="PingFang SC, Microsoft YaHei, Arial, sans-serif" font-weight="700">文</text>
  </g>

  <path d="M72 146C96 164 126 170 162 156" stroke="url(#arrow)" stroke-width="12" stroke-linecap="round" />
  <path d="M158 142L184 152L166 172" stroke="url(#arrow)" stroke-width="12" stroke-linecap="round" stroke-linejoin="round" />
</svg>
